<svg viewBox="0 0 40 26" xmlns="http://www.w3.org/2000/svg"><path d="m7.49 8.94a3.76 3.76 0 0 1 1.22-.2 3.88 3.88 0 0 1 3.8 3.11l2.65-.54a6.59 6.59 0 0 0 -6.45-5.31 6.48 6.48 0 0 0 -2.08.34l.86 2.58z" fill="#fff100"/><path d="m4.35 17.58 1.8-2a3.91 3.91 0 0 1 -1.31-2.92 3.86 3.86 0 0 1 1.31-2.9l-1.8-2a6.63 6.63 0 0 0 0 9.9z" fill="#00a3df"/><path d="m12.51 13.41a3.87 3.87 0 0 1 -3.8 3.1 3.61 3.61 0 0 1 -1.23-.2l-.86 2.58a6.32 6.32 0 0 0 2.09.34 6.58 6.58 0 0 0 6.45-5.23l-2.65-.54z" fill="#ee4023"/><path d="m24 15.23a2.35 2.35 0 0 1 -1.69.68 2.22 2.22 0 0 1 -1.22-.37l-.88 1.46a4 4 0 0 0 2.08.62 4.06 4.06 0 0 0 2.87-1.15zm-1.59-5.73a4 4 0 0 0 -3.41 6.23l7.28-3.12a4 4 0 0 0 -3.87-3.11m-2.41 4.29a2.64 2.64 0 0 1 0-.29 2.36 2.36 0 0 1 2.4-2.33 2.33 2.33 0 0 1 1.77.84zm8.54-6.1v7.78l1.35.56-.64 1.54-1.33-.57a1.52 1.52 0 0 1 -.66-.55 1.75 1.75 0 0 1 -.26-1v-7.76zm4.85 3.6a2.37 2.37 0 0 1 3.07 1.78l1.62-.34a4 4 0 0 0 -3.94-3.22 4.12 4.12 0 0 0 -1.27.2zm-1.91 5.26 1.09-1.24a2.39 2.39 0 0 1 0-3.55l-1.09-1.24a4 4 0 0 0 0 6zm5-2.54a2.37 2.37 0 0 1 -3.07 1.78l-.52 1.57a3.85 3.85 0 0 0 1.27.21 4 4 0 0 0 3.94-3.22l-1.64-.35z"/></svg>