<svg xmlns:xlink="http://www.w3.org/1999/xlink" viewBox="0 0 40 26" xmlns="http://www.w3.org/2000/svg"><clipPath id="a"><path d="m3.72 7.69h32.06v10.42h-32.06z"/></clipPath><g clip-path="url(#a)"><g fill="#00579f"><path d="m17.61 18h-2.61l1.64-10.13h2.6z"/><path d="m27 8.11a6.51 6.51 0 0 0 -2.33-.42c-2.56 0-4.37 1.37-4.38 3.33 0 1.45 1.29 2.26 2.27 2.74s1.35.81 1.35 1.25c0 .68-.81 1-1.56 1a5.24 5.24 0 0 1 -2.44-.53l-.34-.17-.36 2.27a7.85 7.85 0 0 0 2.9.53c2.72 0 4.49-1.35 4.52-3.44 0-1.15-.69-2-2.18-2.75-.91-.46-1.47-.77-1.47-1.24s.47-.87 1.5-.87a4.32 4.32 0 0 1 1.93.39l.24.1z"/><path d="m30.48 14.38c.22-.58 1-2.82 1-2.82l.34-1 .18.87s.49 2.42.6 2.92zm3.21-6.51h-2a1.29 1.29 0 0 0 -1.36.83l-3.87 9.3h2.73s.45-1.24.54-1.51h3.34c.07.36.31 1.51.31 1.51h2.4z"/><path d="m12.85 7.87-2.54 6.88-.31-1.4a7.74 7.74 0 0 0 -3.56-4.23l2.33 8.82h2.74l4.08-10.07z"/></g><path d="m7.94 7.87h-4.17v.2a8.73 8.73 0 0 1 6.23 5.28l-.88-4.63a1.07 1.07 0 0 0 -1.18-.85z" fill="#faa61a"/></g></svg>
