<svg viewBox="0 0 40 26" xmlns="http://www.w3.org/2000/svg"><path d="m0 26h40v-26h-40z" fill="#016fd0"/><path d="m30.71 13.64v1.64h-4.17v1.14h4.07v1.64h-4.07v1.12h4.17v1.66l3.38-3.6zm-1.1-6.14-1.4-3.19h-4l-4.1 9.32h3.33v8.27h10.28l1.61-1.8 1.67 1.81h3v-2.63l-1.9-2.06 1.92-2v-2.64h-1.93v-5l-1.81 5h-1.76l-1.86-5v5h-4.2l-.6-1.46h-3.3l-.56 1.47h-2.26l3.26-7.27h2.55l3.19 7.21v-7.22h3.1l1.6 4.47 1.56-4.47h3v-1h-3.75l-.85 2.39-.85-2.39h-4.94zm-5.06 6.11v7.27h8.7l2.1-2.32 2.12 2.32h2.53v-.1l-3.34-3.53 3.34-3.59v-.05h-2.5l-2.1 2.3-2.08-2.3zm.7-4.11 1-2.31 1 2.31z" fill="#fff" fill-rule="evenodd"/></svg>