<svg xmlns:xlink="http://www.w3.org/1999/xlink" viewBox="0 0 40 26" xmlns="http://www.w3.org/2000/svg"><clipPath id="a"><path d="m2.84 5.25h35.08v15.35h-35.08z"/></clipPath><g clip-path="url(#a)"><path d="m17.51 20.39h-14.51a2.41 2.41 0 0 1 0-.28c0-.13.07-.34.1-.46s.07-.33.1-.46.07-.36.1-.5.07-.35.1-.48.07-.34.09-.47.08-.35.11-.49.07-.36.1-.48a3.82 3.82 0 0 1 .09-.42c0-.11.05-.26.06-.33s.06-.28.1-.47.08-.39.1-.46 0-.29.09-.47.09-.4.1-.47.06-.28.1-.46.08-.39.09-.46 0-.24.08-.38.09-.41.12-.6.11-.5.15-.71.22-.48.22-.54 0-.27.08-.38.06-.32.09-.46l.11-.5c0-.14.07-.35.09-.48s.07-.33.1-.45l.11-.5c0-.15.08-.38.11-.51s.08-.28.1-.34.09-.2.14-.3l.07-.21.09-.12.2-.23.22-.2.2-.15.21-.12.21-.11.22-.09.31-.11.4-.09.44-.07h.21 29a2.4 2.4 0 0 1 -.05.27l-.11.5c0 .14-.07.35-.09.46s-.07.32-.1.46-.08.38-.1.5-.08.34-.1.47-.07.34-.1.47-.06.29-.06.43-.07.34-.1.48l-.11.5c0 .13-.07.34-.09.46s-.07.33-.1.47l-.11.5c0 .14-.07.34-.09.45s-.07.33-.1.48-.07.36-.1.47-.06.32-.09.45-.08.36-.11.51l-.09.46c0 .11-.07.32-.1.46s-.07.37-.1.5-.07.35-.1.47-.07.34-.1.47-.07.37-.1.5-.07.35-.1.46-.07.33-.09.47l-.11.5v.24l-.11.16a2.49 2.49 0 0 1 -.11.27l-.13.22c0 .07-.11.16-.14.19l-.2.22-.15.14-.14.1-.19.13-.21.1-.28.13-.29.09-.22.06-.23.05-.42.06h-.25zm-5.15-3.68h.37a.19.19 0 0 0 0-.08s0-.13 0-.23.05-.32.08-.49.07-.44.1-.59l.06-.42a1.12 1.12 0 0 1 0-.15s0 0 0 .08l.05.08.1.1.09.1h.12l.12.05h.15.14.18.18.2.19l.11-.05a1.86 1.86 0 0 0 .23-.13l.12-.08.11-.11a2 2 0 0 0 .2-.22.44.44 0 0 0 .08-.12v-.08a1.63 1.63 0 0 0 .13-.24l.14-.38.07-.21v-.18c0-.1 0-.26.06-.36v-.19-.15-.16-.15-.16l.07-.19-.06-.12-.11-.12-.12-.12-.13-.07-.14-.07h-.15-.14-.3-.17-.17-.13-.14l-.11.05-.21.11-.12.08a.22.22 0 0 1 -.07.06v-.16c0-.08 0-.16 0-.17h-.64l-.06.35c0 .19-.08.49-.11.66s-.07.43-.09.57-.07.39-.1.56l-.11.59c0 .15-.07.38-.09.51s-.07.35-.1.51-.08.42-.11.57-.07.4-.1.54-.06.28-.06.3zm1.62-2h-.15-.09-.1-.1-.09l-.07-.07-.07-.06v-.09a.76.76 0 0 1 -.06-.18v-.09-.3-.23c0-.13.07-.37.1-.53s.07-.41.1-.55l.05-.23.1-.09.19-.13.1-.05.11-.11h.12.32.13.12.09.09l.08.07.08.08v.08a2 2 0 0 1 .07.19v.11.66l-.05.19a3.1 3.1 0 0 1 -.1.36l.05.26-.07.14-.14.22a.6.6 0 0 1 -.13.14l-.12.1h-.07l-.15.05h-.14zm3.64.47h.19.2l.38-.05.41-.07.2-.06v-.08s0-.17.06-.29v-.2h-.06l-.25.09-.19.06h-.19-.19-.58-.1a1.07 1.07 0 0 1 -.19-.07h-.09l-.06-.06-.07-.06-.06-.1-.03-.07v-.12-.11-.44-.19-.19h2.48v-.13c0-.06 0-.2.05-.31v-.18-.32-.12-.12-.07a.85.85 0 0 0 -.1-.14l-.12-.11-.15-.08-.16-.06h-.16-.15-.19-.19-.31-.21-.21l-.13.06a2.72 2.72 0 0 0 -.25.11 1.56 1.56 0 0 0 -.19.13l-.17.15a1.6 1.6 0 0 0 -.16.19l-.13.22-.1.21-.08.21c0 .08-.06.21-.09.31l-.07.34v.18.51.11c0 .07.05.16.07.21a.89.89 0 0 0 .08.17.57.57 0 0 0 .11.16l.16.14.19.11h.11.14l.27.05zm.38-2.43h-.88v-.13l.1-.23.06-.1.11-.12.12-.11.11-.05.19-.07a1.09 1.09 0 0 1 .24 0h.31.14.09.1l.06.06a.3.3 0 0 1 .07.1v.1.11.16.17zm5.25 2.43h.19.22l.36-.05.27-.06.15-.05a.59.59 0 0 0 0-.18c0-.09 0-.21.05-.26s0-.11 0-.11l-.2.08-.16.06h-.25-.24-.4-.12-.12l-.09-.08-.09-.08-.06-.11-.06-.1v-.14-.15-.37-.22-.23-.12a1 1 0 0 0 .05-.17 1.12 1.12 0 0 1 .08-.18c0-.07.08-.18.12-.25l.07-.11.08-.09.09-.08h.08l.09-.06h.12l.24-.06h.13.39l.23.05h.22.1.09a.41.41 0 0 0 0-.14c0-.08 0-.21 0-.29v-.15h-.15-.48-.34-.24-.23-.18-.17-.12l-.2.1-.14.09-.18.16-.14.13-.07.11c0 .06-.11.19-.16.28l-.08.17-.07.18-.11.36v.18.16.17.56.12l.05.13.05.13.06.09.06.1.1.09.1.09.1.06.1.05h.14l.23.05zm2.88 0h.24.15.15.09a1 1 0 0 0 .2-.11l.18-.14.16-.18a.53.53 0 0 1 .07-.09v.18.28.11h.64v-.49-.32c0-.18.07-.44.1-.58s.06-.38.09-.53.07-.39.1-.53l.05-.25v-.53l-.05-.1-.05-.1-.07-.07-.07-.06-.11-.09-.11-.05h-.16-.17-.22-.23-.29-.51-.21-.28v.1c0 .05-.05.18-.07.29s-.05.19-.05.19h.17l.43-.08.26-.05h.44.15.15l.1.05.1.05.06.09.06.08v.26.15.14h-1.34l-.2.05-.28.09h-.09l-.15.08-.13.08-.11.11a.9.9 0 0 0 -.16.19.75.75 0 0 0 -.12.22l-.06.13v.15.15.32.13.13.09l.11.15.06.07.1.06.11.07h.12l.22.05h.34zm.22-.48h-.14-.09l-.17-.06h-.08l-.05-.06-.08-.12v-.07-.39-.1a1.89 1.89 0 0 1 .09-.21v-.12l.11-.1.1-.1.12-.06.11-.05h.14.14.9v.13a2.11 2.11 0 0 1 -.07.3 2 2 0 0 1 -.1.29c0 .08-.05.14-.05.15l-.06.11-.07.11-.1.1-.12.1-.08.05h-.06-.15-.14zm5.71.48h.17.16l.24-.05a.77.77 0 0 0 .19-.08h.11l.07-.15.09-.08.1-.12.1-.15v.06a1 1 0 0 1 0 .17v.2.12h.69v-.23-.44c0-.25.07-.57.09-.72s.06-.37.08-.48.06-.32.09-.46.06-.38.09-.54l.11-.55c0-.15.07-.37.09-.51s.07-.36.1-.52.07-.36.1-.47v-.21h-.73v.1l-.07.44c0 .18-.07.47-.1.64s-.06.33-.06.37v.05l-.2-.05h-.17-.22-.23-.19-.2-.17-.18l-.16.08-.17.08-.12.09-.13.09-.1.12-.19.22-.08.12-.1.19-.14.32c0 .06-.07.21-.1.32l-.05.21v.27.27.21.22.08a1.77 1.77 0 0 0 .06.17v.09l.06.09.07.09.08.06.08.06h.1a1 1 0 0 0 .22.08l.22.05zm.3-.49h-.22l-.18-.06h-.08l-.07-.06-.08-.06-.05-.1-.05-.1v-.11-.11-.45-.2-.2-.14a.8.8 0 0 0 .05-.16.81.81 0 0 1 .05-.14l.11-.22a2 2 0 0 1 .12-.19 1.37 1.37 0 0 1 .16-.18.83.83 0 0 1 .16-.12l.08-.05h.14.13.58.17l.21.07v.05s0 .14 0 .26l-.09.48c0 .15-.07.38-.1.51a3.44 3.44 0 0 1 -.08.36c0 .07 0 .17-.06.22a.73.73 0 0 1 -.07.19 1.45 1.45 0 0 1 -.1.18.74.74 0 0 1 -.12.13l-.15.12-.1.06h-.14-.14zm-25.86.41h.42v-.19c0-.1 0-.29.08-.43l.09-.57c0-.18.08-.44.1-.58s.07-.36.09-.49a2.42 2.42 0 0 1 .05-.24h2.36v.1c0 .06 0 .23-.07.38l-.11.57c0 .16-.07.39-.1.51s-.07.36-.1.55l-.06.36h.85v-.11c0-.06 0-.16 0-.24s0-.22 0-.33l.09-.5c0-.16.08-.44.11-.62s.07-.43.09-.56.07-.38.1-.52.07-.4.1-.56.08-.39.1-.52.07-.38.1-.54.07-.35.08-.42v-.12h-.86v.08.28c0 .11-.05.31-.08.43s-.06.38-.09.55-.07.39-.08.5v.19h-.61-.64l-.51.04h-.55s0-.07 0-.15 0-.22.06-.31 0-.27.08-.4 0-.28.06-.35v-.25c0-.07 0-.21.06-.32a1.22 1.22 0 0 1 .05-.22h-.76v.15.26l-.07.44c0 .18-.08.45-.1.6l-.1.59c0 .19-.07.46-.1.63s-.08.39-.1.51-.07.34-.1.5-.07.37-.09.49 0 .24-.06.29 0 .19-.06.31 0 .23 0 .24zm4.72 0h.37a.17.17 0 0 0 0-.08s0-.21.06-.39.07-.46.1-.64.08-.43.1-.57.07-.37.09-.51.08-.36.1-.49.07-.37.11-.54a2.43 2.43 0 0 1 .07-.33h-.75v.22c0 .13 0 .37-.08.55s-.08.44-.1.59-.07.4-.1.55l-.09.5c0 .12-.07.35-.1.5l-.09.43v.2zm8.82 0h.37v-.16c0-.08 0-.25 0-.38l.09-.56c0-.18.09-.48.12-.66a3.79 3.79 0 0 1 .1-.42v-.09a.57.57 0 0 1 .07-.16 2 2 0 0 1 .14-.25l.08-.12.11-.09.1-.1.14-.06.13-.07h.51.1.11a.06.06 0 0 0 0 0s0-.13 0-.25.05-.22.05-.22h-.13l-.21-.05h-.09-.12l-.2.05a.87.87 0 0 0 -.19.1 1.1 1.1 0 0 0 -.18.14 1.8 1.8 0 0 0 -.18.2l-.11.16v-.07s0-.16.05-.27 0-.22 0-.24h-.6s0 .16-.05.31-.06.39-.09.54-.06.41-.09.59-.08.41-.1.54-.07.35-.1.5-.07.39-.1.53-.07.33-.08.39a.84.84 0 0 1 0 .13zm8.89 0h.38v-.23-.29c0-.15.07-.4.09-.55s.06-.33.07-.41 0-.26.08-.39a2.37 2.37 0 0 1 .08-.32c0-.05 0-.09 0-.1a1 1 0 0 1 .07-.17l.07-.15.1-.13.09-.12.11-.08.2-.13h.1.44l.19-.03h.08s0-.14 0-.25v-.2h-.14-.08-.32-.13-.13l-.09.06-.1.06-.12.13-.13.13-.07.1c0 .05-.07.1-.07.09s0-.11 0-.25 0-.27.06-.29h-.65v.25c0 .13-.06.38-.09.55s-.07.46-.1.63-.07.42-.1.54-.07.36-.09.51l-.11.52c0 .14-.07.33-.08.42v.16zm-16.93-4.21h.1.09.08l.08-.07.07-.08v-.1-.1-.29-.06-.06h-.06-.06-.3-.09-.09l-.05.05-.06.06v.09.1.29.08.07h.08.07z" fill="#b3131b"/></g></svg>
