<svg viewBox="0 0 40 26" xmlns="http://www.w3.org/2000/svg"><path d="m0 0h40v26h-40z" fill="#fff"/><path d="m2.7 26h1.86v-26h-1.85v26zm2.45 0h.58v-26h-.58zm1.08 0h1v-26h-1zm2 0h.57v-26h-.53v26zm.82 0h.45v-26h-.41v26zm-7.77 0h.58v-26h-.58zm-1.28 0h1v-26h-1zm12.62 0h1.86v-26h-1.85v26zm2.45 0h.58v-26h-.58zm1.08 0h1v-26h-1zm2 0h.58v-26h-.58zm.85 0h.46v-26h-.46zm-7.8 0h.58v-26h-.58zm-1.26 0h1v-26h-1zm10.26 0h1v-26h-1zm2 0h.58v-26h-.58zm.83 0h.44v-26h-.44zm2.11 0h.58v-26h-.58zm-1.27 0h1v-26h-1zm2.62 0h.58v-26h-.58zm.83 0h.44v-26h-.44zm2.11 0h.58v-26h-.58zm-1.23 0h1v-26h-1zm2.36 0h1.86v-26h-1.86zm2.44 0h.58v-26h-.58zm1.08 0h1v-26h-1zm2 0h.58v-26h-.58zm.92 0h.45v-26h-.45zm1.17 0h1.83v-26h-1.88v26z" fill="#1a1918"/><path d="m2.11 26h35.74v-10.43h-35.73v10.43z" fill="#fff"/><path d="m3.75 25.23v-8.68h3.25a4.14 4.14 0 0 1 1.6.26 2.19 2.19 0 0 1 1.28 2 2 2 0 0 1 -.3 1.05 2.15 2.15 0 0 1 -.91.79 2.32 2.32 0 0 1 1.21.79 2.12 2.12 0 0 1 .42 1.32 2.44 2.44 0 0 1 -.26 1.13 2.2 2.2 0 0 1 -.63.81 2.77 2.77 0 0 1 -.95.43 5.7 5.7 0 0 1 -1.4.14zm1.15-5h1.88a4.1 4.1 0 0 0 1.1-.1 1.13 1.13 0 0 0 .88-1.19 1.38 1.38 0 0 0 -.21-.76 1 1 0 0 0 -.55-.48 4.93 4.93 0 0 0 -1.32-.13h-1.78zm0 4h2.17a4.72 4.72 0 0 0 .78 0 2 2 0 0 0 .66-.24 1.28 1.28 0 0 0 .49-.54 1.57 1.57 0 0 0 .17-.73 1.42 1.42 0 0 0 -.25-.85 1.27 1.27 0 0 0 -.69-.5 4.14 4.14 0 0 0 -1.27-.15h-2z"/><path d="m11.36 22.09a3.23 3.23 0 0 1 1-2.59 2.91 2.91 0 0 1 2-.7 2.8 2.8 0 0 1 2.12.85 3.23 3.23 0 0 1 .77 2.35 4.19 4.19 0 0 1 -.36 1.91 2.62 2.62 0 0 1 -1.06 1.09 3 3 0 0 1 -1.52.39 2.87 2.87 0 0 1 -2.14-.85 3.39 3.39 0 0 1 -.81-2.45zm1.1 0a2.68 2.68 0 0 0 .54 1.81 1.7 1.7 0 0 0 1.33.6 1.68 1.68 0 0 0 1.32-.6 2.78 2.78 0 0 0 .53-1.85 2.61 2.61 0 0 0 -.53-1.76 1.67 1.67 0 0 0 -1.32-.61 1.7 1.7 0 0 0 -1.33.6 2.68 2.68 0 0 0 -.54 1.81z"/><path d="m18.48 25.23v-8.68h1.07v8.68z"/><path d="m25.51 23.21 1.1.14a2.7 2.7 0 0 1 -1 1.49 2.88 2.88 0 0 1 -1.8.54 2.91 2.91 0 0 1 -2.19-.85 3.33 3.33 0 0 1 -.81-2.39 3.48 3.48 0 0 1 .82-2.46 3 3 0 0 1 4.19 0 3.43 3.43 0 0 1 .79 2.42v.28h-4.61a2.44 2.44 0 0 0 .53 1.62 1.74 1.74 0 0 0 1.32.55 1.61 1.61 0 0 0 1-.31 2 2 0 0 0 .66-1.03zm-3.51-1.73h3.51a2.2 2.2 0 0 0 -.4-1.19 1.64 1.64 0 0 0 -1.33-.61 1.67 1.67 0 0 0 -1.23.49 1.94 1.94 0 0 0 -.55 1.31z"/><path d="m30.28 24.28.15.94a3.57 3.57 0 0 1 -.81.1 1.77 1.77 0 0 1 -.9-.19 1 1 0 0 1 -.45-.48 4 4 0 0 1 -.13-1.26v-3.62h-.78v-.83h.78v-1.55l1.06-.64v2.19h1.08v.83h-1.08v3.68a1.76 1.76 0 0 0 .06.59.52.52 0 0 0 .18.21.76.76 0 0 0 .37.07 3.16 3.16 0 0 0 .47-.04z"/><path d="m30.92 22.09a3.23 3.23 0 0 1 1-2.59 2.91 2.91 0 0 1 2-.7 2.8 2.8 0 0 1 2.12.85 3.23 3.23 0 0 1 .77 2.35 4.19 4.19 0 0 1 -.36 1.91 2.62 2.62 0 0 1 -1.06 1.09 3 3 0 0 1 -1.52.39 2.83 2.83 0 0 1 -2.13-.85 3.35 3.35 0 0 1 -.82-2.45zm1.1 0a2.68 2.68 0 0 0 .52 1.81 1.71 1.71 0 0 0 1.33.6 1.68 1.68 0 0 0 1.32-.6 2.78 2.78 0 0 0 .53-1.85 2.61 2.61 0 0 0 -.53-1.76 1.66 1.66 0 0 0 -1.32-.61 1.71 1.71 0 0 0 -1.33.6 2.68 2.68 0 0 0 -.54 1.81z"/></svg>