<svg viewBox="0 0 40 26" xmlns="http://www.w3.org/2000/svg"><path d="m16.82 18.17a.22.22 0 0 1 -.22-.17v-6.68a2.54 2.54 0 0 1 2.54-2.54h2.06a2.54 2.54 0 0 1 2.53 2.54v1.68a2.54 2.54 0 0 1 -2.54 2.54h-3.19a.21.21 0 0 1 -.21-.21.21.21 0 0 1 .21-.22h3.23a2.1 2.1 0 0 0 2.07-2.11v-1.68a2.11 2.11 0 0 0 -2.1-2.11h-2.06a2.12 2.12 0 0 0 -2.14 2.11v6.68a.21.21 0 0 1 -.18.17z" fill="#97979b"/><path d="m25.94 15.61a.21.21 0 0 1 -.21-.21v-5.4a.74.74 0 0 0 -.73-.79h-.9a.22.22 0 0 1 0-.43h.9a1.17 1.17 0 0 1 1.16 1.22v5.4a.21.21 0 0 1 -.22.21z" fill="#97979b"/><path d="m25.75 8.23-.4-.4a.25.25 0 0 1 0-.37l.4-.4a.25.25 0 0 1 .36 0l.41.4a.27.27 0 0 1 0 .37l-.41.4a.25.25 0 0 1 -.36 0z" fill="#4bb8a9"/><path d="m28.53 15.58h-.88a.21.21 0 0 1 -.22-.21.22.22 0 0 1 .22-.22h.88a1.5 1.5 0 0 0 1.07-.44l2.07-2a.88.88 0 0 1 1.27 0l2.07 2a1.46 1.46 0 0 0 1.06.44h.72a.22.22 0 0 1 .22.22.21.21 0 0 1 -.22.21h-.72a1.92 1.92 0 0 1 -1.36-.58l-2.07-2a.47.47 0 0 0 -.33-.14.48.48 0 0 0 -.31.14l-2.1 2a2 2 0 0 1 -1.37.58z" fill="#97979b"/><path d="m28.53 8.78h-.88a.22.22 0 1 0 0 .43h.88a1.54 1.54 0 0 1 1.07.44l2.07 2a.88.88 0 0 0 1.27 0l2.07-2a1.46 1.46 0 0 1 1.06-.44h.72a.22.22 0 0 0 .21-.21.21.21 0 0 0 -.22-.21h-.72a1.92 1.92 0 0 0 -1.36.56l-2.07 2a.47.47 0 0 1 -.33.14.48.48 0 0 1 -.34-.14l-2.07-2a1.91 1.91 0 0 0 -1.36-.57z" fill="#97979b"/><g fill="#4bb8a9"><path d="m5.5 16.32a1.62 1.62 0 0 0 1.17-.49l1.7-1.7a.33.33 0 0 1 .45 0l1.71 1.71a1.65 1.65 0 0 0 1.17.48h.3l-2.11 2.16a1.73 1.73 0 0 1 -2.44 0l-2.16-2.16z"/><path d="m11.7 10.3a1.66 1.66 0 0 0 -1.17.49l-1.71 1.71a.33.33 0 0 1 -.45 0l-1.7-1.7a1.62 1.62 0 0 0 -1.17-.49h-.21l2.16-2.16a1.73 1.73 0 0 1 2.44 0l2.11 2.15z"/><path d="m3.5 12.1 1.29-1.29h.71a1.17 1.17 0 0 1 .82.34l1.68 1.7a.82.82 0 0 0 .58.24.8.8 0 0 0 .57-.24l1.71-1.7a1.18 1.18 0 0 1 .82-.35h.84l1.29 1.3a1.72 1.72 0 0 1 0 2.43l-1.29 1.29h-.82a1.17 1.17 0 0 1 -.82-.34l-1.71-1.7a.83.83 0 0 0 -1.15 0l-1.7 1.7a1.21 1.21 0 0 1 -.82.34h-.71l-1.29-1.29a1.72 1.72 0 0 1 0-2.43z"/></g></svg>